Coordinates
version=1
nRows=49
nColumns=12
inDegrees=yes

Units are S.I. units (second, meters, Newtons, ...)
Angles are in degrees

endheader
time	SC_y	SC_z	SC_x	AC_y	AC_z	AC_x	GH_y	GH_z	GH_yy	EL_x	PS_y
       0.0              -45.36          16.12          21.49          54.94         0.2515         -13.57           99.1          51.52         -168.9          122.3           34.4
  0.001076              -45.36          16.12           21.5          54.93         0.2504         -13.57           99.1          51.52         -168.8          122.3          34.41
  0.002153              -45.36          16.12           21.5          54.93         0.2492         -13.57           99.1          51.51         -168.8          122.3          34.42
  0.003229              -45.36          16.12           21.5          54.93          0.248         -13.57          99.09          51.51         -168.8          122.2          34.43
  0.004306              -45.36          16.13          21.51          54.92         0.2467         -13.57          99.09           51.5         -168.8          122.2          34.44
  0.005382              -45.36          16.13          21.51          54.92         0.2453         -13.57          99.09          51.49         -168.7          122.2          34.45
  0.006459              -45.36          16.13          21.52          54.92         0.2438         -13.56          99.09          51.49         -168.7          122.2          34.46
  0.007535              -45.36          16.13          21.52          54.91         0.2422         -13.56          99.08          51.48         -168.7          122.2          34.48
  0.008612              -45.36          16.14          21.53          54.91         0.2405         -13.56          99.08          51.47         -168.6          122.2          34.49
  0.009688              -45.36          16.14          21.54           54.9         0.2386         -13.56          99.07          51.46         -168.6          122.1          34.51
   0.01076              -45.36          16.14          21.54           54.9         0.2366         -13.56          99.07          51.45         -168.5          122.1          34.53
   0.01184              -45.36          16.15          21.55          54.89         0.2345         -13.56          99.06          51.44         -168.5          122.1          34.55
   0.01292              -45.36          16.15          21.56          54.89         0.2322         -13.56          99.06          51.43         -168.4          122.1          34.57
   0.01399              -45.36          16.15          21.56          54.88         0.2298         -13.56          99.05          51.42         -168.4          122.0          34.59
   0.01507              -45.36          16.16          21.57          54.87         0.2271         -13.56          99.05           51.4         -168.3          122.0          34.61
   0.01615              -45.36          16.16          21.58          54.87         0.2242         -13.56          99.04          51.39         -168.3          122.0          34.64
   0.01722              -45.35          16.17          21.59          54.86          0.221         -13.55          99.03          51.37         -168.2          121.9          34.66
    0.0183              -45.35          16.17          21.61          54.85         0.2176         -13.55          99.02          51.35         -168.1          121.9          34.69
   0.01938              -45.35          16.18          21.62          54.84         0.2138         -13.55          99.02          51.34         -168.0          121.9          34.73
   0.02045              -45.35          16.19          21.63          54.83         0.2097         -13.55          99.01          51.31         -167.9          121.8          34.76
   0.02153              -45.35          16.19          21.65          54.82         0.2052         -13.55           99.0          51.29         -167.8          121.8           34.8
   0.02261              -45.35           16.2          21.66           54.8         0.2002         -13.54          98.98          51.27         -167.7          121.7          34.85
   0.02368              -45.35          16.21          21.68          54.79         0.1948         -13.54          98.97          51.24         -167.6          121.7           34.9
   0.02476              -45.35          16.22           21.7          54.77         0.1887         -13.54          98.96          51.21         -167.5          121.6          34.95
   0.02583              -45.34          16.23          21.73          54.76         0.1819         -13.54          98.94          51.18         -167.3          121.5          35.01
   0.02691              -45.34          16.24          21.75          54.74         0.1744         -13.53          98.92          51.14         -167.2          121.4          35.08
   0.02799              -45.34          16.26          21.78          54.71         0.1659         -13.53           98.9          51.09         -167.0          121.3          35.15
   0.02906              -45.34          16.27          21.81          54.69         0.1564         -13.52          98.88          51.05         -166.8          121.2          35.23
   0.03014              -45.33          16.29          21.85          54.66         0.1457         -13.52          98.86          50.99         -166.5          121.1          35.33
   0.03122              -45.33          16.31          21.89          54.63         0.1335         -13.51          98.83          50.93         -166.2          121.0          35.43
   0.03229              -45.32          16.33          21.93          54.59         0.1196         -13.51           98.8          50.86         -165.9          120.8          35.56
   0.03337              -45.32          16.36          21.99          54.55         0.1037          -13.5          98.76          50.78         -165.6          120.7           35.7
   0.03445              -45.31          16.39          22.05           54.5        0.08523         -13.49          98.72          50.69         -165.2          120.4          35.86
   0.03552              -45.31          16.42          22.12          54.45        0.06381         -13.48          98.67          50.58         -164.7          120.2          36.05
    0.0366               -45.3          16.46          22.21          54.38        0.03875         -13.47          98.61          50.46         -164.1          119.9          36.27
   0.03768              -45.29          16.51           22.3          54.31       0.009216         -13.46          98.54          50.31         -163.5          119.6          36.53
   0.03875              -45.28          16.56          22.42          54.21       -0.02589         -13.44          98.46          50.13         -162.7          119.2          36.84
   0.03983              -45.27          16.63          22.56          54.11       -0.06796         -13.42          98.36          49.92         -161.8          118.8          37.21
   0.04091              -45.26          16.71          22.73          53.97        -0.1189          -13.4          98.24          49.66         -160.7          118.2          37.66
   0.04198              -45.24          16.81          22.94          53.81        -0.1811         -13.37           98.1          49.35         -159.3          117.5           38.2
   0.04306              -45.21          16.94           23.2          53.61        -0.2578         -13.33          97.92          48.96         -157.6          116.7          38.88
   0.04413              -45.19          17.09          23.52          53.36        -0.3535         -13.29          97.69          48.48         -155.4          115.6          39.72
   0.04521              -45.15          17.29          23.92          53.05        -0.4741         -13.23          97.41          47.88         -152.8          114.3          40.78
   0.04629              -45.11          17.53          24.44          52.65        -0.6273         -13.16          97.06          47.11         -149.4          112.6          42.13
   0.04736              -45.05          17.85           25.1          52.14        -0.8235         -13.07           96.6          46.12         -145.0          110.4          43.86
   0.04844              -44.98          18.25          25.94          51.48         -1.075         -12.96          96.01          44.86         -139.4          107.6          46.08
   0.04952              -44.88          18.77          27.02          50.65         -1.397         -12.81          95.26          43.24         -132.3          104.1          48.91
   0.05059              -44.76          19.42          28.37           49.6         -1.801         -12.62          94.32          41.21         -123.4          99.59          52.47
   0.05167              -44.62          20.21          30.03          48.31         -2.294          -12.4          93.17          38.73         -112.4          94.14           56.8
